<svg version="1.1" id="Layer_1" xmlns="http://www.w3.org/2000/svg" xmlns:xlink="http://www.w3.org/1999/xlink" x="0px" y="0px"
	 width="100%" viewBox="0 0 5605 1839" enable-background="new 0 0 5605 1839" xml:space="preserve">
<path fill="#213368" opacity="1.000000" stroke="none"
	d="
M5026.021484,3.356282
	C5058.068359,6.485100 5089.918945,10.804445 5121.344238,18.049524
	C5164.582031,28.017908 5206.357422,42.200684 5246.661133,60.740608
	C5300.170898,85.355186 5349.186035,116.956497 5393.754883,155.452362
	C5452.806641,206.457962 5500.537598,266.370911 5536.345215,335.808929
	C5556.390625,374.680206 5571.934570,415.197113 5582.678223,457.548309
	C5590.770508,489.445801 5596.904785,521.735474 5598.217773,554.685059
	C5599.236328,580.232666 5600.290039,605.859436 5599.378418,631.381409
	C5598.409668,658.507263 5594.433594,685.439880 5589.090820,712.135437
	C5579.387695,760.617004 5563.498535,807.017151 5541.811523,851.342407
	C5520.396484,895.110352 5493.839844,935.661133 5462.305176,972.874939
	C5411.641113,1032.662720 5351.855469,1081.130127 5282.929199,1118.533081
	C5219.484863,1152.960938 5152.186523,1175.887085 5081.037109,1187.329346
	C5060.110352,1190.694824 5038.884766,1192.734619 5017.714355,1193.909302
	C4993.522949,1195.251587 4969.177246,1196.259521 4945.010254,1195.098022
	C4891.442383,1192.523315 4838.841797,1183.524414 4787.444824,1167.776611
	C4717.457520,1146.332642 4652.940430,1114.017700 4594.343750,1070.242188
	C4517.720215,1012.998962 4457.127930,942.105652 4414.009766,856.437744
	C4387.976074,804.714539 4370.183105,750.336975 4360.507812,693.361511
	C4356.458008,669.513489 4353.521973,645.445068 4353.592285,621.123169
	C4353.618164,612.184753 4352.230957,603.232483 4352.414551,594.305664
	C4354.061523,514.351257 4369.945801,437.507568 4402.864258,364.373657
	C4428.596191,307.205078 4462.479980,255.343414 4504.457031,208.883682
	C4553.298340,154.825699 4610.160645,110.936821 4674.465820,76.619339
	C4735.708008,43.936165 4800.677246,22.268396 4868.984375,10.628092
	C4887.268555,7.512259 4905.858398,6.192462 4926.000000,3.836272
	C4932.460938,3.082935 4937.230469,2.541466 4942.000000,1.999998
	C4964.041504,2.000000 4986.083496,2.000000 5009.690430,2.487254
	C5016.177246,3.101765 5021.099609,3.229021 5026.021484,3.356282
M5369.724609,684.675781
	C5375.194336,662.379822 5378.401855,639.690613 5379.493164,616.831848
	C5380.603027,593.597046 5379.648926,570.342773 5376.254883,547.236267
	C5370.860352,510.511566 5360.481445,475.283325 5344.687988,441.712799
	C5322.617676,394.800262 5292.333008,353.963440 5253.937988,319.033752
	C5218.875000,287.135132 5179.593750,261.947205 5135.802246,243.981552
	C5076.842773,219.793167 5015.606445,209.032089 4951.770020,213.213638
	C4928.483398,214.739014 4905.468750,217.637100 4882.825195,222.957474
	C4798.791504,242.702911 4727.292480,284.204346 4669.793945,348.665894
	C4614.351562,410.822296 4582.249512,483.788635 4574.613770,566.776855
	C4570.975098,606.322754 4573.718262,645.829041 4583.446289,684.591980
	C4608.121582,782.918884 4663.583496,859.707947 4747.194336,916.118652
	C4811.243652,959.331421 4882.678711,981.254150 4959.633301,985.251404
	C4985.240234,986.581543 5010.866211,984.943054 5036.198730,981.129761
	C5082.572754,974.149170 5126.740723,960.143250 5168.413574,938.302307
	C5213.137695,914.862244 5252.368652,884.474121 5285.503906,846.451294
	C5326.162109,799.796814 5354.353027,746.460022 5369.724609,684.675781
z"/>
<path fill="#213368" opacity="1.000000" stroke="none"
	d="
M4291.062500,2.000001
	C4291.890137,6.325684 4291.684570,10.651361 4291.684570,14.977047
	C4291.669922,404.289307 4291.670898,793.601562 4291.670898,1182.913818
	C4291.670898,1186.862671 4291.670898,1190.811646 4291.670898,1195.437256
	C4220.586426,1195.437256 4150.111816,1195.437256 4078.606689,1195.437256
	C4078.606689,1033.447754 4078.606689,871.325500 4078.606689,708.663330
	C3931.472412,708.663330 3785.366211,708.663330 3638.581055,708.663330
	C3638.581055,871.047791 3638.581055,1032.922729 3638.581055,1195.458374
	C3567.109375,1195.458374 3496.312744,1195.458374 3424.285400,1195.458374
	C3424.285400,798.234375 3424.285400,401.045197 3424.142578,2.927999
	C3494.708496,2.000000 3565.416992,2.000000 3637.207031,2.927779
	C3638.288818,168.379013 3638.288818,332.902466 3638.288818,497.466492
	C3785.639404,497.466492 3931.757812,497.466492 4078.328125,497.466492
	C4078.328125,493.850464 4078.327637,490.883392 4078.327637,487.916290
	C4078.327637,328.936462 4078.330322,169.956604 4078.314697,10.976767
	C4078.314453,7.984500 4078.109375,4.992255 4078.000000,2.000000
	C4148.708496,2.000000 4219.416504,2.000000 4291.062500,2.000001
z"/>
<path fill="#213368" opacity="1.000000" stroke="none"
	d="
M2978.021729,3.356175
	C3014.456299,7.253788 3050.274658,14.085872 3084.958984,26.149542
	C3137.737305,44.506367 3185.148682,71.880730 3226.568848,109.645683
	C3277.475098,156.059479 3312.661133,212.232849 3332.507080,278.069031
	C3339.511719,301.305847 3343.925537,325.060516 3346.461182,349.246399
	C3349.178223,375.159882 3349.301758,401.118958 3347.460938,426.954224
	C3343.419678,483.674072 3330.691162,538.350891 3306.583496,590.201233
	C3287.746582,630.714783 3263.026123,667.146484 3231.926758,699.063049
	C3204.134033,727.585815 3172.402100,751.150940 3137.178223,769.874756
	C3083.389648,798.467041 3025.923584,814.918762 2965.599121,822.207153
	C2935.532959,825.839661 2905.399414,827.470825 2875.138428,827.387390
	C2847.142578,827.310181 2819.146240,827.370972 2791.150146,827.370972
	C2787.896484,827.370972 2784.643066,827.370972 2780.604492,827.370972
	C2780.604492,950.516846 2780.604492,1072.697144 2780.604492,1195.497559
	C2709.027344,1195.497559 2638.238770,1195.497559 2566.285889,1195.497559
	C2566.285889,798.182495 2566.285889,401.019226 2566.143066,2.927979
	C2698.708496,2.000000 2831.416992,2.000000 2965.533691,2.623791
	C2970.635010,3.283780 2974.328369,3.319978 2978.021729,3.356175
M2787.670410,558.999878
	C2787.670410,574.518555 2787.670410,590.037231 2787.670410,606.118225
	C2796.849365,606.118225 2804.800049,606.267212 2812.743896,606.092957
	C2852.323730,605.224609 2891.961670,608.153503 2931.494873,604.137329
	C2966.871826,600.543335 3000.936279,592.234070 3032.386230,575.224304
	C3065.200195,557.476685 3090.647949,532.166809 3106.350098,498.131683
	C3126.032715,455.469116 3132.423096,410.422272 3125.610107,364.040344
	C3120.001953,325.859589 3101.926270,293.872284 3072.552490,268.534851
	C3034.999512,236.142517 2990.184570,223.404587 2941.848633,222.350937
	C2893.561768,221.298355 2845.234375,222.111740 2796.924561,222.140442
	C2794.034424,222.142151 2791.144043,222.439056 2787.670410,222.630798
	C2787.670410,334.537872 2787.670410,445.768890 2787.670410,558.999878
z"/>
<path fill="#213368" opacity="1.000000" stroke="none"
	d="
M741.062683,2.000000
	C741.890564,4.658774 741.685669,7.317535 741.685303,9.976324
	C741.669373,123.954796 741.671509,237.933273 741.671509,351.911743
	C741.671509,354.560181 741.671509,357.208618 741.671509,361.821777
	C750.379089,354.116974 757.863953,347.426422 765.421509,340.818878
	C793.604431,316.178619 824.372864,295.223297 857.862549,278.617950
	C904.088074,255.697723 952.805115,241.386810 1004.534302,237.178787
	C1058.709961,232.771759 1111.458130,238.548843 1162.059937,258.316956
	C1259.480835,296.375336 1323.461060,365.775848 1352.986694,466.329041
	C1362.297363,498.037750 1366.365601,530.583923 1366.357666,563.665222
	C1366.307861,770.292908 1366.332397,976.920532 1366.332397,1183.548218
	C1366.332397,1187.459961 1366.332397,1191.371826 1366.332397,1195.678955
	C1292.861572,1195.678955 1220.311157,1195.678955 1146.328613,1195.678955
	C1146.328613,1191.868774 1146.328491,1188.016357 1146.328491,1184.163818
	C1146.328491,981.535400 1146.178467,778.906860 1146.459717,576.278809
	C1146.513550,537.398010 1130.613525,506.425659 1103.222900,480.302429
	C1068.235840,446.934296 1026.159302,428.781708 978.457092,423.939362
	C919.471497,417.951538 867.720642,435.476288 822.991455,474.190857
	C793.840393,499.422058 772.360535,530.342773 755.799377,564.880798
	C754.558289,567.469116 754.117126,570.525452 753.744568,573.420837
	C753.407166,576.043640 753.671570,578.744019 753.671570,581.410156
	C753.671448,782.038940 753.671509,982.667725 753.671509,1183.296509
	C753.671509,1187.226562 753.671509,1191.156616 753.671509,1195.582520
	C679.676575,1195.582520 606.542664,1195.582520 532.285156,1195.582520
	C532.285156,798.151733 532.285156,401.003906 532.142578,2.928026
	C601.375122,2.000000 670.750244,2.000000 741.062683,2.000000
z"/>
<path fill="#213368" opacity="1.000000" stroke="none"
	d="
M349.333344,2.000000
	C349.890930,4.325464 349.686890,6.650909 349.686462,8.976394
	C349.670135,94.623627 349.672638,180.270859 349.672607,265.918091
	C349.672607,268.559357 349.672607,271.200623 349.672607,275.319702
	C386.596771,275.418732 422.997009,275.304443 459.852478,275.386902
	C459.852478,338.846527 459.852478,401.380310 459.852478,464.800903
	C423.609436,464.800903 387.442932,464.800903 352.169403,464.800903
	C351.052185,465.916626 350.814972,466.139374 350.594574,466.377594
	C350.368408,466.622070 350.092102,466.851715 349.960663,467.143250
	C349.830719,467.431610 349.839081,467.787994 349.813904,468.116608
	C349.762970,468.780457 349.695496,469.445709 349.695282,470.110382
	C349.625732,711.386475 349.561432,952.662598 349.477783,1193.938721
	C349.477661,1194.218872 349.190002,1194.499023 348.669434,1195.450439
	C277.908264,1195.450439 206.774796,1195.450439 134.536942,1195.450439
	C134.536942,952.518555 134.536942,709.461609 134.536942,465.468567
	C90.231468,465.468567 47.020805,465.468567 2.905071,465.734283
	C2.000000,403.291534 2.000000,340.583099 2.903935,276.666962
	C47.031151,275.459290 90.254433,275.459290 134.607941,275.459290
	C134.607941,205.154037 134.607941,136.038483 134.607941,67.049690
	C187.454269,50.951778 239.243256,35.232048 290.992401,19.382158
	C309.378143,13.750906 327.666931,7.803230 346.000000,2.000000
	C346.888885,2.000000 347.777802,2.000000 349.333344,2.000000
z"/>
<path fill="#007996" opacity="1.000000" stroke="none"
	d="
M5608.000000,1737.062744
	C5589.101562,1738.000000 5570.203125,1738.000000 5550.319336,1738.000000
	C5550.319336,1733.642822 5550.319336,1730.064819 5550.319336,1726.486694
	C5550.319336,1678.836426 5549.681641,1631.173340 5550.631348,1583.541992
	C5551.013184,1564.400024 5542.314941,1552.472900 5526.764648,1544.580811
	C5495.959961,1528.946899 5463.840332,1542.599243 5448.525391,1575.212036
	C5447.212891,1578.006958 5447.713379,1581.747437 5447.710449,1585.049072
	C5447.666016,1632.366089 5447.680664,1679.683228 5447.680664,1727.000244
	C5447.680664,1730.276733 5447.680664,1733.553101 5447.680664,1737.515137
	C5428.903320,1737.515137 5410.814453,1737.515137 5392.196777,1737.515137
	C5392.196777,1634.547852 5392.196777,1531.742310 5392.196777,1428.220459
	C5409.052246,1428.220459 5425.880371,1428.220459 5444.104492,1428.220459
	C5444.178223,1437.939087 5444.284668,1448.111572 5444.323730,1458.284302
	C5444.362305,1468.280762 5444.332520,1478.277466 5444.332520,1488.274048
	C5444.332520,1498.530762 5444.332520,1508.787476 5444.332520,1520.282349
	C5446.889160,1518.922241 5448.701172,1518.345337 5450.019043,1517.199951
	C5473.221191,1497.033936 5500.051758,1487.345947 5530.819336,1489.562012
	C5566.306641,1492.118286 5595.316406,1515.063721 5604.489258,1547.299927
	C5605.750000,1551.729980 5606.034180,1556.437866 5607.385254,1561.508667
	C5608.000000,1620.041748 5608.000000,1678.083618 5608.000000,1737.062744
z"/>
<path fill="#007996" opacity="1.000000" stroke="none"
	d="
M4154.937500,1842.000000
	C4155.870605,1835.698486 4157.417969,1829.279053 4159.666992,1823.115356
	C4171.744629,1790.013794 4183.862793,1756.925293 4196.341797,1723.974243
	C4198.074219,1719.399902 4197.654297,1715.764404 4196.017578,1711.592041
	C4179.631348,1669.817871 4163.294434,1628.024292 4147.001465,1586.213379
	C4135.173340,1555.861450 4123.428711,1525.477051 4111.671387,1495.097656
	C4111.094727,1493.608887 4110.748535,1492.031128 4110.128418,1489.929688
	C4130.618652,1489.929688 4150.511719,1489.929688 4171.231934,1489.929688
	C4189.922852,1539.881470 4208.629883,1589.875366 4227.336426,1639.869141
	C4239.498535,1615.384766 4248.710449,1590.157227 4258.361328,1565.106567
	C4268.024902,1540.023560 4277.783203,1514.977295 4287.517090,1489.869629
	C4307.547363,1489.869629 4326.786133,1489.869629 4347.234375,1489.869629
	C4342.488281,1502.539795 4338.062012,1514.568604 4333.486328,1526.540283
	C4296.820312,1622.473389 4260.118652,1718.392578 4223.453613,1814.325928
	C4220.138184,1823.000244 4217.002441,1831.743652 4213.891602,1841.227539
	C4194.625000,1842.000000 4175.250000,1842.000000 4154.937500,1842.000000
z"/>
<path fill="#213368" opacity="1.000000" stroke="none"
	d="
M2358.972168,649.157959
	C2364.589600,690.693481 2363.865479,731.584229 2363.523926,773.770935
	C2283.862793,775.141663 2204.408447,773.074463 2124.963379,773.317932
	C2045.297607,773.562073 1965.629639,773.585632 1885.963989,773.311340
	C1806.394043,773.037476 1726.825806,772.274719 1646.967407,771.724304
	C1648.928711,812.356689 1659.360840,849.291016 1679.171631,883.519165
	C1703.289429,925.188660 1737.066772,956.895447 1779.095825,979.962524
	C1817.253418,1000.904785 1858.167969,1013.266724 1901.572876,1015.455688
	C1925.411133,1016.657837 1949.441406,1015.294189 1973.327881,1014.017029
	C2011.333374,1011.985107 2048.323730,1004.116821 2084.388672,992.044556
	C2136.650879,974.550476 2182.923340,947.242493 2221.564941,907.591370
	C2223.408447,905.699646 2225.051270,903.612183 2227.361816,900.955750
	C2268.046875,944.536743 2308.145020,987.489136 2348.395020,1030.604248
	C2316.963379,1065.672974 2280.323975,1093.031738 2239.972168,1115.438477
	C2176.565918,1150.646851 2108.412842,1172.116943 2037.098999,1184.194092
	C2007.284790,1189.243164 1977.371704,1193.309570 1947.113647,1194.089844
	C1922.207031,1194.732056 1897.212769,1196.402832 1872.392090,1195.083618
	C1810.409790,1191.789062 1751.095825,1176.946533 1694.819336,1150.348145
	C1653.935425,1131.024780 1616.460571,1106.487915 1582.605835,1076.640015
	C1542.098877,1040.927246 1508.605103,999.351929 1482.057129,952.278687
	C1457.706665,909.101868 1440.583862,863.125671 1430.644897,814.628967
	C1424.911987,786.655457 1421.866943,758.310547 1421.504639,729.620178
	C1421.024170,691.581909 1423.748169,653.953918 1431.737061,616.732788
	C1444.003784,559.579712 1466.001953,506.476044 1497.472656,457.216858
	C1518.726074,423.950317 1543.677856,393.728241 1572.486938,366.855042
	C1620.246460,322.304413 1674.755737,288.481689 1736.345703,266.378479
	C1776.281372,252.046555 1817.402710,243.153824 1859.717285,239.741226
	C1924.424927,234.522675 1987.782349,241.189957 2049.506348,261.542847
	C2108.742432,281.075378 2161.340088,311.989258 2207.723145,353.795410
	C2250.274170,392.147583 2283.953857,437.175781 2309.778564,488.026855
	C2335.416016,538.508728 2351.763916,592.021362 2358.972168,649.157959
M1807.000000,610.118225
	C1912.513062,610.118225 2018.026001,610.118225 2123.659912,610.118225
	C2123.659912,605.634216 2123.745361,602.061584 2123.621582,598.496277
	C2123.564453,596.861816 2123.073486,595.245239 2122.818115,593.614502
	C2117.528809,559.829163 2100.688721,532.092590 2077.510254,507.802612
	C2050.707031,479.714142 2018.642578,459.273438 1983.063965,444.224548
	C1956.254150,432.884644 1928.235840,425.936035 1899.176880,424.276672
	C1878.215698,423.079712 1857.322998,425.440125 1836.886108,430.181000
	C1754.301880,449.338776 1697.163208,498.065674 1666.956421,577.639832
	C1663.108154,587.777283 1660.640381,598.296082 1660.603882,610.118225
	C1709.178101,610.118225 1757.088989,610.118225 1807.000000,610.118225
z"/>
<path fill="#007996" opacity="1.000000" stroke="none"
	d="
M314.333252,1472.000000
	C314.333282,1560.946655 314.333282,1648.893433 314.333282,1738.207886
	C309.994812,1738.207886 306.134949,1738.207886 302.275085,1738.207886
	C289.944183,1738.207886 277.593018,1737.785278 265.290344,1738.374634
	C258.484222,1738.700806 254.357788,1736.229248 250.385300,1730.962158
	C227.156662,1700.163330 203.630005,1669.589111 180.192139,1638.948120
	C151.703033,1601.703613 123.204460,1564.466309 94.698090,1527.234985
	C93.597839,1525.797852 92.373756,1524.455444 89.712173,1521.291626
	C89.712173,1594.745728 89.712173,1665.861816 89.712173,1737.589722
	C70.111008,1737.589722 51.347794,1737.589722 32.123589,1737.589722
	C32.123589,1634.013428 32.123589,1530.810181 32.123589,1426.998535
	C34.289066,1426.733765 36.499470,1426.239624 38.712196,1426.229004
	C53.375637,1426.158447 68.044693,1426.412476 82.700615,1426.072754
	C87.888016,1425.952515 91.246765,1427.480713 94.432655,1431.666504
	C131.494843,1480.359375 168.739929,1528.913208 205.940369,1577.500854
	C221.306107,1597.570068 236.678757,1617.634033 252.058151,1637.692749
	C252.822021,1638.688965 253.681015,1639.612305 256.193756,1642.564697
	C256.420685,1626.327515 256.290985,1612.265259 256.313690,1598.210083
	C256.336853,1583.879517 256.318848,1569.549072 256.318848,1555.218506
	C256.318848,1541.221313 256.318848,1527.223999 256.318848,1513.226807
	C256.318848,1498.896240 256.318848,1484.565796 256.318848,1470.235229
	C256.318848,1455.971558 256.318848,1441.707886 256.318848,1426.822388
	C275.633789,1426.822388 294.140442,1426.822388 314.138855,1426.822388
	C314.558319,1441.361938 314.229614,1456.189209 314.333252,1472.000000
z"/>
<path fill="#007996" opacity="1.000000" stroke="none"
	d="
M896.540649,1634.548340
	C914.214661,1586.079224 931.612061,1538.338989 949.196167,1490.086670
	C968.065063,1490.086670 986.934998,1490.086670 1007.290283,1490.086670
	C992.379089,1531.954224 976.658813,1572.995117 961.462158,1614.220825
	C946.297180,1655.360596 930.940552,1696.429565 915.572754,1737.785645
	C896.638672,1737.785645 878.052795,1737.785645 858.634583,1737.785645
	C837.671448,1682.045166 816.651306,1626.153198 794.849792,1568.183594
	C773.269226,1625.749756 752.413391,1681.382812 731.341858,1737.591064
	C712.624451,1737.591064 693.794250,1737.591064 674.287598,1737.591064
	C645.648682,1655.535889 616.988831,1573.420776 588.076172,1490.581177
	C598.187378,1488.493530 607.724609,1489.783936 617.162170,1489.552368
	C626.463989,1489.323975 635.775818,1489.502319 645.982849,1489.502319
	C664.978516,1544.932861 683.906494,1600.166016 703.601624,1657.637573
	C715.238892,1628.446655 724.957153,1600.516602 735.228271,1572.804688
	C745.484680,1545.132690 755.645081,1517.424927 765.825989,1489.791504
	C785.374756,1489.791504 803.985840,1489.791504 823.743408,1489.791504
	C844.472351,1545.887085 865.273682,1602.178589 886.834595,1660.525635
	C890.443176,1650.863281 893.353638,1643.070312 896.540649,1634.548340
z"/>
<path fill="#007996" opacity="1.000000" stroke="none"
	d="
M3591.480469,1540.876953
	C3587.492432,1542.832031 3584.162598,1544.328979 3580.983154,1546.096313
	C3572.305420,1550.919067 3567.136230,1557.279053 3571.396729,1567.926758
	C3572.094238,1569.670166 3571.674072,1571.883545 3571.674316,1573.879761
	C3571.683838,1626.545532 3571.682373,1679.211426 3571.669678,1731.877197
	C3571.669189,1733.501587 3571.524902,1735.125977 3571.413086,1737.470215
	C3552.996582,1737.470215 3534.904297,1737.470215 3515.665283,1737.470215
	C3515.665283,1733.925049 3515.665283,1730.364990 3515.665283,1726.804810
	C3515.665283,1680.138916 3514.602295,1633.440063 3516.041504,1586.818604
	C3516.990234,1556.084473 3494.643555,1541.677612 3473.106689,1538.358032
	C3452.168457,1535.130615 3435.388184,1543.501709 3422.305176,1559.604004
	C3415.470947,1568.015625 3411.864502,1577.158936 3412.044434,1588.763916
	C3412.752930,1634.418945 3412.334717,1680.091309 3412.334717,1725.757324
	C3412.334717,1729.408081 3412.334717,1733.058838 3412.334717,1737.458984
	C3393.173584,1737.458984 3374.385986,1737.458984 3354.957764,1737.458984
	C3354.957764,1656.720337 3354.957764,1575.900024 3354.960449,1495.078979
	C3362.032959,1493.133789 3393.886963,1492.673218 3407.867676,1494.407837
	C3407.867676,1502.174072 3407.867676,1510.061035 3407.867676,1520.346802
	C3412.087158,1517.076538 3414.853516,1515.057007 3417.484131,1512.874146
	C3436.371094,1497.199463 3458.444092,1488.888916 3482.600098,1488.520264
	C3506.449951,1488.156128 3528.578369,1494.978882 3546.166748,1512.513672
	C3548.278564,1514.619629 3550.481689,1516.634399 3553.062500,1519.091187
	C3555.567871,1517.340088 3558.111084,1515.874023 3560.292725,1513.989014
	C3579.453125,1497.432495 3602.127197,1488.705444 3626.967285,1488.522095
	C3662.374512,1488.260620 3694.884521,1504.370239 3709.436035,1541.680664
	C3713.106201,1551.090210 3715.305420,1561.689331 3715.410889,1571.770752
	C3715.977051,1625.763916 3715.668701,1679.766113 3715.642578,1733.765259
	C3715.642090,1734.730469 3715.391113,1735.695801 3715.065430,1738.036255
	C3696.411621,1738.395386 3677.650635,1738.138672 3657.665283,1738.197754
	C3657.665283,1734.013428 3657.665283,1730.465088 3657.665283,1726.916626
	C3657.665283,1678.584106 3657.405273,1630.249390 3657.801025,1581.920044
	C3657.947266,1564.083374 3649.603271,1552.309692 3634.617188,1544.402710
	C3621.092285,1537.266724 3606.925293,1535.433960 3591.480469,1540.876953
z"/>
<path fill="#007996" opacity="1.000000" stroke="none"
	d="
M1246.000000,1426.185791
	C1306.229126,1426.185913 1365.458252,1426.185913 1425.686890,1426.185913
	C1425.686890,1438.818604 1425.711548,1450.399658 1425.678223,1461.980469
	C1425.656128,1469.644043 1427.540039,1478.096313 1424.904419,1484.741333
	C1422.436157,1490.964355 1415.160889,1495.292725 1409.966919,1500.420410
	C1383.176514,1526.867798 1356.433472,1553.363281 1329.563232,1579.729248
	C1296.041382,1612.621704 1262.411133,1645.403809 1228.846680,1678.252930
	C1228.712158,1678.384521 1228.854004,1678.798462 1228.904907,1679.917969
	C1293.973511,1679.917969 1359.089722,1679.917969 1424.943970,1679.917969
	C1424.943970,1699.504272 1424.943970,1718.269531 1424.943970,1737.628174
	C1331.683960,1737.628174 1238.550537,1737.628174 1144.313110,1737.628174
	C1144.313110,1726.443970 1144.238037,1715.544678 1144.338257,1704.646973
	C1144.411377,1696.682861 1142.703979,1687.908813 1145.496582,1680.992310
	C1148.149658,1674.421265 1155.560913,1669.738281 1160.975708,1664.320801
	C1217.293213,1607.973511 1273.622192,1551.637573 1329.986816,1495.337280
	C1332.556030,1492.771362 1335.494141,1490.574585 1338.260254,1488.205688
	C1337.973999,1487.409302 1337.687744,1486.612793 1337.401489,1485.816406
	C1328.373169,1485.723267 1319.345215,1485.593994 1310.316772,1485.547363
	C1301.317139,1485.500732 1292.316895,1485.537109 1283.317017,1485.537109
	C1273.983765,1485.537109 1264.650391,1485.537109 1255.317139,1485.537109
	C1246.317261,1485.537109 1237.317261,1485.537109 1228.317383,1485.537109
	C1218.984131,1485.537109 1209.650757,1485.537109 1200.317505,1485.537109
	C1191.317627,1485.537109 1182.317627,1485.537109 1173.317749,1485.537109
	C1164.055542,1485.537109 1154.793335,1485.537109 1144.933960,1485.537109
	C1144.933960,1465.494995 1144.933960,1446.382080 1144.933960,1426.185791
	C1178.536377,1426.185791 1211.768188,1426.185791 1246.000000,1426.185791
z"/>
<path fill="#007996" opacity="1.000000" stroke="none"
	d="
M2635.820801,1516.196411
	C2639.533447,1519.819092 2642.731201,1522.941284 2647.443848,1527.542603
	C2647.443848,1492.636841 2647.443848,1460.135498 2647.443848,1426.915527
	C2666.537354,1426.915527 2684.946777,1426.915527 2704.522705,1426.915527
	C2704.522705,1530.323364 2704.522705,1633.446167 2704.522705,1738.045532
	C2696.758301,1738.096558 2688.273926,1738.174438 2679.789551,1738.201782
	C2671.140625,1738.229614 2662.491699,1738.207886 2652.528809,1738.207886
	C2652.528809,1722.468140 2652.528809,1707.127441 2652.528809,1691.630981
	C2641.854004,1701.557861 2632.601074,1711.492188 2622.033447,1719.742920
	C2589.008057,1745.528198 2540.503662,1744.445435 2506.505615,1719.802612
	C2471.733643,1694.598877 2455.232422,1659.970215 2453.593262,1617.478149
	C2452.523193,1589.728882 2458.507080,1563.916138 2473.571777,1540.559204
	C2491.560059,1512.668457 2517.526611,1496.960083 2550.144043,1491.726929
	C2568.214111,1488.827759 2585.833252,1489.978027 2603.176025,1496.014282
	C2615.358643,1500.254639 2625.512451,1507.641113 2635.820801,1516.196411
M2646.280029,1628.741211
	C2648.427490,1617.846313 2648.545166,1606.936401 2645.746826,1596.171753
	C2637.166992,1563.167603 2608.905273,1543.408813 2579.636475,1544.232910
	C2559.248535,1544.806885 2542.695801,1553.365234 2528.875977,1568.299561
	C2503.658691,1595.550171 2507.620605,1644.548462 2536.779785,1667.340210
	C2573.980713,1696.417236 2635.050293,1682.065186 2646.280029,1628.741211
z"/>
<path fill="#007996" opacity="1.000000" stroke="none"
	d="
M4692.331055,1713.978027
	C4692.331055,1722.269287 4692.331055,1729.565308 4692.331055,1737.528687
	C4673.037109,1737.528687 4654.258301,1737.528687 4634.337891,1737.528687
	C4634.337891,1696.624756 4634.337891,1655.853271 4634.337891,1614.671631
	C4596.385254,1614.671631 4559.566895,1614.671631 4521.938477,1614.671631
	C4521.938477,1655.636719 4521.938477,1696.149780 4521.938477,1738.025635
	C4502.399902,1738.383789 4483.643066,1738.134766 4464.274414,1738.198608
	C4464.274414,1634.690674 4464.274414,1531.883789 4464.274414,1428.291260
	C4482.888672,1428.291260 4501.651367,1428.291260 4521.608887,1428.291260
	C4521.608887,1469.677490 4521.608887,1511.116211 4521.608887,1553.000854
	C4559.620117,1553.000854 4596.436523,1553.000854 4634.139648,1553.000854
	C4634.139648,1511.336914 4634.139648,1470.164673 4634.139648,1428.254150
	C4653.751465,1428.254150 4672.492676,1428.254150 4692.331055,1428.254150
	C4692.331055,1523.253540 4692.331055,1618.118286 4692.331055,1713.978027
z"/>
<path fill="#007996" opacity="1.000000" stroke="none"
	d="
M2868.316406,1490.000000
	C2868.316406,1468.435547 2868.316406,1447.871094 2868.316406,1426.687866
	C2872.116943,1426.490356 2875.016113,1426.211670 2877.916016,1426.208618
	C2908.552002,1426.176880 2939.197266,1425.724121 2969.821533,1426.325073
	C2998.083496,1426.879761 3022.993652,1436.539062 3043.425049,1456.681274
	C3063.517822,1476.489624 3072.367920,1500.861816 3072.236084,1528.610718
	C3072.143066,1548.098267 3068.293457,1566.989990 3058.939209,1584.262817
	C3043.072754,1613.561157 3018.107178,1630.828979 2985.849121,1637.985107
	C2970.834229,1641.316040 2955.597656,1641.897705 2940.287598,1641.548462
	C2936.025146,1641.451172 2931.758789,1641.533569 2926.647461,1641.533569
	C2926.647461,1674.552368 2926.647461,1706.714600 2926.647461,1739.538696
	C2907.035645,1739.538696 2888.264893,1739.538696 2868.316406,1739.538696
	C2868.316406,1656.606323 2868.316406,1573.803223 2868.316406,1490.000000
M2986.083496,1575.417358
	C3002.871582,1567.804565 3012.550537,1554.763184 3015.198975,1536.628906
	C3017.838135,1518.559814 3011.926025,1503.908569 2996.650391,1493.555786
	C2987.365723,1487.262939 2976.986084,1484.141113 2965.694092,1484.184326
	C2952.839844,1484.233521 2939.985107,1484.195679 2927.002441,1484.195679
	C2927.002441,1517.513916 2927.002441,1549.575317 2927.002441,1582.160645
	C2946.903564,1582.132568 2966.180908,1583.222656 2986.083496,1575.417358
z"/>
<path fill="#007996" opacity="1.000000" stroke="none"
	d="
M578.809937,1694.507080
	C568.113281,1710.198486 552.155090,1718.526001 535.536255,1725.447754
	C508.001526,1736.916138 478.886444,1740.584106 449.467102,1737.932861
	C397.293945,1733.231201 353.214355,1694.118042 341.964020,1643.662354
	C332.064240,1599.263550 342.620392,1559.740967 374.084229,1526.886597
	C399.569641,1500.274902 431.724915,1488.212036 468.531708,1489.762085
	C528.115906,1492.271484 570.994690,1533.985718 581.466309,1589.892456
	C582.622620,1596.065430 583.259644,1602.374634 583.605286,1608.649902
	C583.966980,1615.216187 583.686096,1621.817993 583.686096,1629.283203
	C521.563232,1629.283203 460.408020,1629.283203 398.385956,1629.283203
	C398.067963,1639.729248 401.284302,1648.293579 405.848297,1656.226929
	C418.900360,1678.914185 439.675415,1690.009277 464.933350,1691.222412
	C496.049072,1692.716919 524.022095,1684.937256 548.183533,1661.547974
	C558.266602,1672.339966 568.358032,1683.140869 578.809937,1694.507080
M497.710205,1551.093506
	C493.935303,1548.990112 490.298035,1546.575806 486.362885,1544.834717
	C463.404358,1534.677002 441.682831,1537.140381 421.698608,1552.226807
	C410.767365,1560.479004 404.165009,1571.633057 401.277924,1585.583252
	C441.578156,1585.583252 480.719269,1585.583252 521.055176,1585.583252
	C519.744690,1580.969849 519.115540,1577.037476 517.536804,1573.532715
	C513.488770,1564.545898 507.178650,1557.351929 497.710205,1551.093506
z"/>
<path fill="#007996" opacity="1.000000" stroke="none"
	d="
M1552.894043,1691.473633
	C1566.294800,1690.184204 1578.990479,1689.797119 1591.276733,1687.352905
	C1608.930298,1683.841064 1624.024658,1674.764771 1637.196045,1661.299194
	C1647.663330,1672.578125 1657.800903,1683.501953 1668.303467,1694.818970
	C1662.134033,1704.443604 1653.163086,1710.661377 1643.728638,1715.987427
	C1607.311768,1736.545898 1568.052734,1742.874512 1527.154297,1735.981567
	C1478.417603,1727.767456 1438.600708,1686.925537 1429.810547,1638.212524
	C1419.880615,1583.184204 1443.925049,1530.772461 1493.189087,1504.402466
	C1562.703247,1467.192871 1653.715576,1500.573364 1670.386353,1589.677612
	C1672.794189,1602.547974 1672.355835,1615.393555 1672.112671,1629.538574
	C1641.042847,1629.538574 1610.505615,1629.538452 1579.968384,1629.538452
	C1549.692505,1629.538452 1519.416626,1629.538574 1488.346436,1629.538574
	C1486.650269,1637.135376 1489.136108,1643.645874 1491.905151,1649.817749
	C1501.914185,1672.125366 1519.565796,1684.929321 1543.185303,1689.961426
	C1546.099487,1690.582397 1549.064575,1690.964233 1552.894043,1691.473633
M1521.038818,1545.639648
	C1504.597168,1553.934326 1494.833252,1567.309692 1490.187256,1585.662842
	C1530.371094,1585.662842 1569.778198,1585.662842 1609.742920,1585.662842
	C1608.527832,1573.524048 1603.036011,1564.293457 1594.392822,1557.057007
	C1572.835327,1539.008057 1549.022217,1533.240234 1521.038818,1545.639648
z"/>
<path fill="#007996" opacity="1.000000" stroke="none"
	d="
M4894.000000,1629.534790
	C4849.497070,1628.985352 4805.994141,1628.436157 4761.998535,1627.880615
	C4761.072266,1640.709351 4765.319824,1650.710571 4771.379883,1659.940552
	C4782.418945,1676.755127 4798.549805,1686.665405 4818.091309,1689.251343
	C4842.496094,1692.480835 4866.696777,1690.432983 4888.901367,1678.388916
	C4896.721680,1674.147217 4903.795410,1668.529663 4912.143555,1662.912109
	C4921.473633,1673.167725 4931.426758,1684.108398 4942.376953,1696.144775
	C4938.052734,1700.221191 4934.075684,1704.506226 4929.566406,1708.127808
	C4910.638184,1723.328857 4888.335938,1730.956421 4864.899414,1735.110107
	C4840.898926,1739.363892 4816.762207,1740.597778 4792.720703,1734.299805
	C4737.171387,1719.748413 4700.862793,1667.447632 4701.428711,1615.129517
	C4701.809082,1579.952148 4713.391602,1549.912231 4738.117676,1525.412354
	C4764.273926,1499.495850 4796.325195,1488.288330 4833.225586,1490.016846
	C4890.726074,1492.710327 4937.271484,1535.854736 4945.483398,1595.484619
	C4946.961914,1606.217773 4945.693848,1617.328857 4945.693848,1629.534912
	C4928.761719,1629.534912 4911.880859,1629.534912 4894.000000,1629.534790
M4781.816895,1554.756714
	C4773.064453,1563.560669 4765.903809,1573.215454 4764.148438,1586.823975
	C4804.354980,1586.823975 4843.712402,1586.823975 4883.080566,1586.823975
	C4882.816406,1570.400146 4870.185059,1554.725464 4850.401367,1545.908569
	C4826.376953,1535.201538 4803.833984,1537.513062 4781.816895,1554.756714
z"/>
<path fill="#007996" opacity="1.000000" stroke="none"
	d="
M2322.636230,1538.023071
	C2298.927490,1540.898071 2284.887451,1554.935425 2275.625488,1574.683716
	C2274.174072,1577.778564 2274.385498,1581.806030 2274.379883,1585.403076
	C2274.305420,1632.371826 2274.330322,1679.340820 2274.330322,1726.309692
	C2274.330322,1729.903198 2274.330566,1733.496582 2274.330566,1737.643555
	C2254.739746,1737.643555 2235.909180,1737.643555 2216.371094,1737.643555
	C2216.371094,1655.313477 2216.371094,1572.952271 2216.371094,1490.048828
	C2234.416016,1490.048828 2252.267090,1490.048828 2271.345703,1490.048828
	C2271.345703,1499.407593 2271.345703,1508.790161 2271.345703,1519.969971
	C2284.661133,1508.934204 2297.086426,1500.330933 2311.555176,1495.106079
	C2339.116211,1485.153809 2366.284180,1485.059692 2392.564941,1498.946777
	C2417.004150,1511.860596 2430.232422,1532.921997 2434.180908,1559.876953
	C2435.425049,1568.369141 2435.592285,1577.072388 2435.616455,1585.680908
	C2435.747070,1632.316406 2435.678467,1678.952393 2435.678467,1725.588257
	C2435.678467,1729.227173 2435.678467,1732.865967 2435.678467,1737.834106
	C2425.554932,1738.592163 2415.701904,1738.095337 2405.890137,1738.186279
	C2396.272217,1738.275391 2386.652344,1738.205566 2375.669434,1738.205566
	C2375.669434,1734.165527 2375.669678,1730.649658 2375.669678,1727.133789
	C2375.669678,1678.832397 2375.178223,1630.523560 2375.913330,1582.233276
	C2376.203857,1563.140991 2366.737793,1551.719727 2351.432129,1543.510498
	C2342.826416,1538.894897 2333.416992,1536.799683 2322.636230,1538.023071
z"/>
<path fill="#007996" opacity="1.000000" stroke="none"
	d="
M5135.401367,1520.783325
	C5145.732910,1535.049194 5149.812012,1550.385376 5149.752441,1567.217285
	C5149.565918,1620.186157 5149.684082,1673.156128 5149.684082,1726.125610
	C5149.684082,1729.728516 5149.684082,1733.331421 5149.684082,1737.563965
	C5131.802246,1737.563965 5114.675293,1737.563965 5096.328613,1737.563965
	C5096.328613,1729.484375 5096.328613,1721.437134 5096.328613,1712.368042
	C5066.935547,1740.666870 5033.913574,1745.420898 4998.761719,1731.304565
	C4972.651855,1720.818970 4954.735840,1700.865601 4950.392090,1672.265015
	C4945.109375,1637.483765 4960.429688,1609.590210 4990.697266,1592.196289
	C5009.175293,1581.577148 5029.393066,1580.699219 5049.787109,1582.696899
	C5065.444824,1584.230835 5080.406250,1588.574341 5094.207520,1601.052368
	C5094.181152,1587.857178 5095.887695,1576.312012 5093.390137,1565.196289
	C5090.180176,1550.913696 5076.397949,1542.376221 5058.666016,1542.248657
	C5036.680176,1542.090332 5014.691895,1542.210327 4992.704590,1542.210083
	C4989.432617,1542.209961 4986.160645,1542.210083 4982.279785,1542.210083
	C4982.279785,1524.709473 4982.279785,1507.885132 4982.279785,1490.918213
	C4982.622070,1490.627319 4983.113770,1489.843506 4983.604004,1489.844727
	C5015.564453,1489.921875 5047.576660,1489.009155 5079.468262,1490.556763
	C5101.868652,1491.643433 5120.805664,1502.185669 5135.401367,1520.783325
M5019.308594,1685.549194
	C5030.955078,1698.715820 5045.267090,1703.266113 5062.329102,1698.788574
	C5078.240234,1694.612915 5090.926758,1677.124023 5089.771484,1656.241211
	C5088.697266,1636.804688 5073.052246,1619.556519 5054.370605,1618.203735
	C5033.218262,1616.671997 5013.853516,1630.615112 5009.865234,1649.989502
	C5007.206055,1662.907593 5011.150391,1674.026611 5019.308594,1685.549194
z"/>
<path fill="#007996" opacity="1.000000" stroke="none"
	d="
M3815.947754,1582.188721
	C3831.003662,1582.058716 3844.827637,1583.783936 3857.651123,1589.943970
	C3863.540039,1592.772827 3868.884521,1596.735229 3875.235107,1600.651978
	C3875.706787,1588.418701 3877.061035,1576.330933 3873.683838,1564.466553
	C3869.916016,1551.228638 3856.285156,1542.428589 3839.256592,1542.264038
	C3816.929199,1542.048218 3794.598145,1542.210571 3772.268799,1542.210205
	C3769.029297,1542.210205 3765.789795,1542.210083 3762.119629,1542.210083
	C3762.119629,1524.382568 3762.119629,1507.550049 3762.119629,1490.917114
	C3762.988037,1490.384277 3763.525879,1489.765381 3764.061279,1489.767212
	C3795.703125,1489.873535 3827.412354,1488.794922 3858.968018,1490.518066
	C3893.232666,1492.389160 3922.649658,1516.385864 3928.854736,1551.140991
	C3929.317871,1553.735352 3929.647705,1556.394775 3929.649658,1559.024048
	C3929.693604,1616.347412 3929.682373,1673.670898 3929.682129,1730.994263
	C3929.682129,1732.937500 3929.682373,1734.880859 3929.682373,1737.515381
	C3911.884277,1737.515381 3894.750977,1737.515381 3876.735352,1737.515381
	C3876.735352,1729.718994 3876.735352,1721.862305 3876.735352,1712.039673
	C3872.574707,1715.982544 3869.950684,1718.756592 3867.035645,1721.181030
	C3855.436768,1730.828369 3841.777100,1735.854370 3827.044678,1737.723877
	C3800.668701,1741.070435 3776.814941,1735.039307 3756.443359,1717.320435
	C3716.683838,1682.738403 3723.839844,1627.826294 3758.456543,1600.653564
	C3775.025635,1587.647217 3793.775635,1581.077393 3815.947754,1582.188721
M3803.440674,1689.593872
	C3805.868164,1691.344604 3808.152100,1693.352295 3810.747314,1694.802979
	C3824.273438,1702.363281 3837.999512,1703.065674 3851.423096,1694.791748
	C3867.600586,1684.820557 3874.094971,1664.449829 3867.821533,1644.696777
	C3862.418457,1627.685791 3845.598633,1616.594116 3826.632324,1618.281250
	C3803.088379,1620.375244 3788.624023,1641.283447 3789.412354,1658.074341
	C3789.984863,1670.265015 3795.160645,1679.656616 3803.440674,1689.593872
z"/>
<path fill="#007996" opacity="1.000000" stroke="none"
	d="
M1803.878052,1489.502197
	C1829.041016,1489.754272 1850.759888,1496.375366 1867.931274,1514.327759
	C1880.389404,1527.352539 1887.426147,1543.087036 1887.542603,1561.011108
	C1887.915283,1618.316162 1887.677368,1675.625122 1887.657959,1732.932617
	C1887.657471,1734.221313 1887.447266,1735.510132 1887.274414,1737.490967
	C1869.929077,1737.490967 1852.798462,1737.490967 1834.779297,1737.490967
	C1834.779297,1729.776855 1834.779297,1721.923462 1834.779297,1712.080811
	C1830.615723,1715.992920 1828.000610,1718.730225 1825.101685,1721.124146
	C1814.038208,1730.260254 1801.081909,1735.457764 1787.088745,1737.445068
	C1760.528198,1741.217163 1736.270020,1735.717285 1715.200439,1718.205811
	C1673.977783,1683.944580 1679.281128,1620.543091 1725.898804,1594.168457
	C1755.642456,1577.340332 1786.406006,1579.143066 1817.208618,1590.879639
	C1822.642578,1592.950073 1827.244995,1597.202393 1833.200195,1601.077637
	C1833.944092,1587.484863 1835.136597,1574.347046 1829.942139,1561.939819
	C1824.578613,1549.129517 1814.432495,1542.308716 1800.335815,1542.240356
	C1777.013550,1542.127319 1753.690308,1542.209473 1730.367554,1542.209351
	C1727.119995,1542.209229 1723.872559,1542.209351 1720.157349,1542.209351
	C1720.157349,1524.458740 1720.157349,1507.631104 1720.157349,1489.502197
	C1747.869507,1489.502197 1775.383911,1489.502197 1803.878052,1489.502197
M1788.883179,1618.195312
	C1758.880981,1617.563354 1734.618896,1648.549927 1753.774780,1680.644775
	C1764.526611,1698.659058 1785.602173,1705.857178 1803.508911,1698.291626
	C1820.885010,1690.950195 1830.346680,1673.185181 1827.366333,1652.438599
	C1824.032837,1629.231812 1806.605957,1618.524536 1788.883179,1618.195312
z"/>
<path fill="#007996" opacity="1.000000" stroke="none"
	d="
M2070.000000,1489.504028
	C2087.648438,1489.735107 2104.406250,1488.837891 2120.922607,1490.434692
	C2154.349365,1493.666138 2181.238037,1515.008789 2188.880615,1547.317993
	C2189.715088,1550.844727 2190.266357,1554.532715 2190.271484,1558.147095
	C2190.355469,1616.134033 2190.331787,1674.121216 2190.317139,1732.108276
	C2190.316650,1733.728394 2190.145752,1735.348511 2190.020020,1737.578003
	C2172.885986,1737.578003 2156.047852,1737.578003 2138.320801,1737.578003
	C2138.320801,1730.015503 2138.320801,1722.199219 2138.320801,1712.766724
	C2135.508545,1714.705811 2133.809570,1715.492676 2132.618164,1716.757812
	C2120.080322,1730.072998 2103.959717,1735.982178 2086.443604,1737.926514
	C2060.470703,1740.809570 2037.114746,1734.537964 2017.069946,1716.767578
	C1980.219971,1684.098633 1982.866699,1633.005371 2016.008057,1603.597534
	C2036.578369,1585.344727 2061.372314,1579.317993 2088.468262,1583.114136
	C2096.979248,1584.306641 2105.682373,1585.473877 2113.722412,1588.292725
	C2121.348145,1590.966553 2128.220703,1595.787598 2135.646240,1599.783691
	C2135.646240,1589.765991 2136.812500,1579.150269 2135.376953,1568.898804
	C2133.137939,1552.908081 2119.323730,1542.295776 2102.851562,1542.231201
	C2079.523682,1542.139648 2056.195312,1542.225098 2032.867188,1542.187744
	C2029.635132,1542.182495 2026.403442,1541.907104 2022.820068,1541.740356
	C2022.820068,1524.250366 2022.820068,1507.426758 2022.820068,1489.504150
	C2038.530640,1489.504150 2053.765381,1489.504150 2070.000000,1489.504028
M2050.321533,1660.526245
	C2051.118896,1669.321899 2054.090820,1677.322021 2059.514648,1684.280884
	C2068.677490,1696.036621 2080.710938,1702.790894 2095.698242,1701.121582
	C2111.392334,1699.373657 2122.523926,1690.582520 2128.241943,1675.456787
	C2136.569092,1653.429565 2127.052490,1632.287354 2111.423828,1623.401245
	C2082.534668,1606.975708 2048.518799,1630.684204 2050.321533,1660.526245
z"/>
<path fill="#007996" opacity="1.000000" stroke="none"
	d="
M5340.335449,1666.000000
	C5340.335449,1690.276978 5340.335449,1713.554077 5340.335449,1737.518555
	C5321.077637,1737.518555 5302.304688,1737.518555 5282.684570,1737.518555
	C5282.684570,1675.331177 5282.684570,1613.204224 5282.684570,1549.789307
	C5271.486816,1549.789307 5261.079590,1549.789307 5250.184570,1549.789307
	C5250.184570,1532.658569 5250.184570,1516.810059 5250.184570,1499.671143
	C5260.597168,1499.671143 5271.013184,1499.671143 5282.196777,1499.671143
	C5282.196777,1481.196411 5282.196777,1463.980103 5282.196777,1446.308716
	C5301.370117,1440.091919 5319.953613,1434.066284 5339.866699,1427.609741
	C5341.027344,1451.791748 5339.755371,1475.146240 5340.636230,1499.545044
	C5350.542969,1499.545044 5359.683594,1499.545044 5369.223633,1499.545044
	C5369.223633,1516.541504 5369.223633,1532.378662 5369.223633,1549.323608
	C5359.751465,1549.323608 5350.598145,1549.323608 5340.335449,1549.323608
	C5340.335449,1588.612305 5340.335449,1626.806152 5340.335449,1666.000000
z"/>
<path fill="#007996" opacity="1.000000" stroke="none"
	d="
M3211.441895,1547.370605
	C3186.122070,1546.370239 3168.051270,1557.278931 3154.851807,1577.380005
	C3151.267578,1582.838501 3149.539062,1588.449707 3149.573975,1595.125000
	C3149.800781,1638.764526 3149.690430,1682.405884 3149.690430,1726.046631
	C3149.690430,1729.652832 3149.690430,1733.259033 3149.690430,1737.536865
	C3130.529297,1737.536865 3112.065674,1737.536865 3092.951660,1737.536865
	C3092.951660,1656.764160 3092.951660,1575.980591 3092.951660,1494.523071
	C3101.505859,1492.302002 3110.438965,1493.817261 3119.240723,1493.553833
	C3128.206055,1493.285645 3137.185791,1493.494507 3147.377930,1493.494507
	C3147.377930,1502.073120 3147.377930,1510.122681 3147.377930,1520.053955
	C3178.805664,1493.824463 3212.235107,1483.676025 3251.602295,1494.723389
	C3247.082764,1513.986816 3242.659424,1532.839844 3238.304199,1551.402100
	C3229.055908,1550.012817 3220.664062,1548.752197 3211.441895,1547.370605
z"/>
<path fill="#007996" opacity="1.000000" stroke="none"
	d="
M3998.335938,1729.793823
	C3998.335693,1732.752197 3998.335693,1734.732666 3998.335693,1737.461914
	C3979.851318,1737.461914 3961.730713,1737.461914 3942.958008,1737.461914
	C3942.958008,1656.739746 3942.958008,1575.933472 3942.958008,1495.115967
	C3949.966797,1493.104492 3980.752441,1492.598633 3995.841797,1494.349854
	C3995.841797,1502.106567 3995.841797,1509.987183 3995.841797,1520.178223
	C3999.549072,1517.588135 4001.806641,1516.184937 4003.872314,1514.540894
	C4024.393799,1498.207886 4047.676514,1489.587402 4073.971436,1490.338013
	C4082.472900,1490.580688 4090.924316,1492.575806 4100.511719,1493.926025
	C4097.342285,1514.197998 4091.711426,1532.751465 4087.886475,1550.823853
	C4076.083008,1549.660034 4065.327393,1548.026733 4054.528320,1547.654541
	C4032.187988,1546.884644 4009.311523,1563.040527 3999.424805,1587.064209
	C3998.224365,1589.980347 3998.383057,1593.569092 3998.378418,1596.846680
	C3998.315674,1640.836426 3998.336426,1684.826172 3998.335938,1729.793823
z"/>
<path fill="#007996" opacity="1.000000" stroke="none"
	d="
M5217.864258,1738.209961
	C5202.937500,1738.209961 5188.989258,1738.209961 5174.354980,1738.209961
	C5174.354980,1634.264282 5174.354980,1530.872803 5174.354980,1426.835205
	C5193.721191,1426.835205 5213.151367,1426.835205 5233.134766,1426.835205
	C5233.134766,1530.289062 5233.134766,1633.413452 5233.134766,1737.963379
	C5228.484375,1738.043579 5223.664062,1738.126831 5217.864258,1738.209961
z"/>
<path fill="#007996" opacity="1.000000" stroke="none"
	d="
M1913.664551,1654.000000
	C1913.664429,1577.786621 1913.664429,1502.573120 1913.664429,1426.775635
	C1932.953125,1426.775635 1951.479736,1426.775635 1970.065063,1426.775635
	C1972.221069,1433.815308 1973.218750,1711.507324 1971.010498,1738.052612
	C1952.404297,1738.379272 1933.653442,1738.146240 1913.664551,1738.198608
	C1913.664551,1710.022461 1913.664551,1682.511230 1913.664551,1654.000000
z"/>
<path fill="#007996" opacity="1.000000" stroke="none"
	d="
M3331.692871,1711.976562
	C3331.692871,1720.914185 3331.692871,1728.855835 3331.692871,1737.501465
	C3311.936768,1737.501465 3292.812256,1737.501465 3272.992920,1737.501465
	C3272.992920,1656.640991 3272.992920,1575.630127 3272.992920,1494.054688
	C3292.406006,1494.054688 3311.518066,1494.054688 3331.693115,1494.054688
	C3331.693115,1566.671143 3331.693115,1638.825928 3331.692871,1711.976562
z"/>
<path fill="#007996" opacity="1.000000" stroke="none"
	d="
M3305.974854,1477.572632
	C3294.426514,1477.572632 3283.872559,1477.572632 3272.814941,1477.572632
	C3272.814941,1460.282959 3272.814941,1444.090942 3272.814941,1427.848755
	C3279.436279,1425.720581 3318.750977,1425.246826 3331.172363,1427.278442
	C3331.172363,1443.625488 3331.172363,1460.055298 3331.172363,1477.572632
	C3322.765625,1477.572632 3314.867432,1477.572632 3305.974854,1477.572632
z"/>
</svg>
